<?xml version="1.0" standalone="no"?>
<!DOCTYPE svg PUBLIC "-//W3C//DTD SVG 20010904//EN"
 "http://www.w3.org/TR/2001/REC-SVG-20010904/DTD/svg10.dtd">
<svg version="1.0" xmlns="http://www.w3.org/2000/svg"
 width="1200.000000pt" height="1200.000000pt" viewBox="0 0 1200.000000 1200.000000"
 preserveAspectRatio="xMidYMid meet">
<metadata>
Created by potrace 1.11, written by Peter Selinger 2001-2013
</metadata>
<g transform="translate(0.000000,1200.000000) scale(0.100000,-0.100000)"
fill="#000000" stroke="none">
<path d="M5748 10315 c-1 -1 -46 -5 -98 -9 -52 -4 -106 -8 -120 -11 -14 -2
-52 -7 -85 -10 -33 -3 -69 -8 -80 -10 -11 -3 -36 -7 -55 -9 -19 -3 -73 -13
-120 -22 -47 -9 -96 -18 -109 -20 -77 -15 -346 -89 -466 -129 -422 -141 -843
-362 -1210 -636 -214 -159 -494 -418 -669 -619 -284 -327 -536 -723 -701
-1105 -26 -60 -51 -119 -56 -130 -76 -174 -191 -567 -234 -802 -3 -16 -7 -37
-9 -48 -10 -54 -27 -170 -42 -300 -20 -169 -26 -637 -11 -805 86 -943 436
-1782 1033 -2476 74 -85 352 -367 424 -429 465 -400 932 -667 1505 -860 109
-37 298 -88 450 -121 20 -4 151 -28 210 -39 45 -8 260 -34 345 -42 160 -15
693 -7 812 12 24 4 79 11 158 20 25 3 69 10 98 16 29 6 65 12 80 14 26 4 44 8
102 20 14 3 34 7 45 9 128 25 524 148 650 201 17 8 80 35 140 60 61 26 169 78
241 115 l130 68 28 -44 c38 -59 186 -209 271 -272 128 -96 300 -171 478 -209
113 -25 350 -24 467 0 501 107 865 485 955 994 17 99 13 332 -9 429 -44 203
-124 368 -255 528 -62 76 -187 191 -242 223 l-26 15 83 167 c90 182 110 225
155 339 54 135 129 358 155 462 8 30 16 62 19 70 9 34 65 294 70 333 4 23 10
62 15 88 5 25 12 79 16 120 3 40 8 76 9 79 25 44 25 837 0 913 -2 6 -6 37 -9
67 -6 65 -25 199 -31 220 -2 8 -6 32 -9 52 -16 108 -85 379 -135 533 -107 327
-217 567 -418 915 -11 19 -61 96 -111 170 -589 874 -1477 1504 -2492 1769
-144 37 -358 81 -475 97 -27 4 -58 8 -68 10 -10 2 -53 6 -95 10 -42 3 -86 8
-97 11 -22 5 -601 13 -607 8z m412 -1860 c126 -8 178 -12 205 -18 11 -3 45 -8
75 -13 58 -8 68 -10 73 -14 3 -2 22 -6 67 -14 33 -5 114 -29 259 -76 36 -11
71 -26 79 -33 8 -7 17 -11 18 -10 5 3 32 -6 79 -28 22 -10 47 -19 55 -21 8 -2
17 -6 20 -9 3 -3 34 -20 70 -38 36 -18 72 -39 81 -47 9 -8 19 -11 22 -7 4 3 7
1 7 -5 0 -7 6 -12 14 -12 7 0 19 -7 26 -15 7 -8 16 -12 21 -9 5 3 9 1 9 -3 0
-5 15 -17 33 -28 34 -20 173 -121 195 -142 8 -8 30 -26 50 -41 52 -38 287
-276 324 -329 17 -23 35 -43 40 -43 4 0 8 -4 8 -10 0 -9 43 -71 86 -123 8 -9
14 -19 14 -22 0 -3 21 -37 46 -76 85 -134 169 -316 252 -549 9 -27 11 -34 37
-135 28 -106 30 -115 39 -185 3 -25 9 -58 12 -75 8 -35 11 -60 19 -180 9 -120
9 -208 0 -340 -5 -60 -9 -129 -9 -152 -1 -24 -5 -43 -10 -43 -5 0 -7 -2 -4 -5
4 -4 -38 -215 -56 -287 -13 -48 -88 -263 -107 -305 -46 -103 -102 -218 -108
-223 -3 -3 -15 -23 -26 -45 -11 -22 -22 -42 -25 -45 -5 -5 -17 -25 -44 -75 -6
-11 -19 -27 -28 -36 -10 -9 -15 -19 -11 -23 3 -3 0 -6 -7 -6 -7 0 -11 -3 -7
-6 3 -3 -2 -14 -11 -23 -10 -10 -26 -31 -37 -46 -11 -16 -31 -43 -45 -59 -14
-17 -29 -37 -35 -44 -5 -7 -31 -35 -57 -63 -27 -28 -48 -52 -48 -54 0 -2 -54
-55 -133 -131 -12 -11 -49 -43 -82 -70 -54 -45 -82 -66 -207 -157 -20 -15 -41
-27 -47 -27 -5 0 -14 -6 -18 -13 -4 -6 -28 -23 -53 -35 -25 -13 -91 -48 -147
-78 -57 -30 -103 -52 -103 -48 0 3 -6 2 -12 -4 -13 -10 -158 -72 -180 -76 -7
-2 -20 -6 -28 -9 -8 -3 -49 -16 -90 -27 -41 -12 -82 -24 -90 -27 -8 -4 -28 -8
-45 -10 -16 -2 -37 -7 -45 -10 -8 -4 -22 -8 -30 -9 -50 -6 -107 -16 -120 -19
-120 -31 -497 -36 -677 -9 -21 3 -51 7 -68 9 -28 3 -97 14 -120 20 -27 6 -74
17 -110 26 -22 6 -49 12 -60 14 -11 2 -21 4 -22 5 -2 2 -6 3 -10 4 -5 1 -26 8
-48 15 -22 7 -46 14 -53 16 -7 3 -14 3 -16 2 -1 -1 -10 4 -19 12 -10 7 -17 11
-17 7 0 -4 -13 0 -29 8 -16 9 -31 12 -35 9 -3 -4 -6 -1 -6 5 0 7 -8 12 -18 12
-10 0 -22 3 -26 7 -3 4 -14 8 -24 9 -9 2 -18 8 -20 13 -2 6 -10 11 -17 11 -25
0 -240 116 -336 181 -32 21 -60 39 -63 39 -4 0 -15 8 -25 17 -11 10 -26 23
-33 28 -7 6 -33 26 -58 45 -25 19 -54 42 -64 50 -26 20 -275 268 -301 300 -52
64 -153 200 -175 235 -13 22 -28 42 -32 43 -4 2 -8 10 -8 17 0 8 -6 20 -13 27
-24 25 -147 265 -139 273 3 3 0 5 -6 5 -7 0 -12 8 -12 18 0 10 -3 22 -7 26 -5
4 -8 11 -9 14 0 4 -6 21 -13 37 -6 17 -15 41 -20 55 -5 14 -13 34 -17 45 -4
11 -8 22 -9 25 0 3 -10 34 -22 70 -19 58 -35 121 -34 135 0 2 -5 19 -10 37 -6
18 -12 47 -15 63 -4 29 -14 83 -20 115 -4 19 -15 118 -20 185 -5 65 -5 295 1
365 6 67 14 148 19 175 1 11 6 43 10 70 4 28 10 57 13 65 3 8 8 24 9 35 11 59
29 128 51 195 14 41 26 80 28 85 1 6 7 24 14 40 6 17 17 44 23 60 27 73 144
315 157 325 4 3 12 16 19 30 29 57 108 176 122 185 6 4 8 11 5 16 -4 5 -2 9 3
9 5 0 31 28 58 63 27 34 53 68 59 75 43 55 318 322 333 322 4 0 25 16 47 35
56 49 58 51 86 65 13 7 26 16 29 19 3 4 30 22 60 41 30 19 58 39 62 45 4 5 8
6 8 2 0 -5 12 1 26 12 15 12 33 21 40 21 7 0 19 6 26 13 7 7 28 19 46 26 17 7
32 18 32 23 0 5 5 6 10 3 6 -3 24 3 40 15 17 12 30 19 30 16 0 -3 17 3 37 14
21 11 46 20 55 20 10 0 18 5 18 11 0 5 5 7 10 4 6 -3 10 -1 10 6 0 7 3 10 6 7
3 -4 45 7 92 24 48 16 93 30 100 31 6 0 12 3 12 7 0 3 8 6 18 7 21 1 70 11 97
20 22 7 28 8 103 19 28 4 52 10 52 13 0 3 10 6 23 7 12 0 56 4 97 9 41 4 101
8 132 9 32 2 60 4 62 7 5 5 98 3 236 -6z"/>
</g>
</svg>
